<svg width="40" height="40" viewBox="0 0 40 40" fill="none" xmlns="http://www.w3.org/2000/svg">
<g clip-path="url(#clip0)">
<path d="M14.9247 39.4566C9.16884 39.4235 4.40771 27.6738 4.40771 21.69C4.40771 11.9155 11.7403 9.77556 14.5662 9.77556C15.8397 9.77556 17.1996 10.2757 18.399 10.7182C19.2377 11.027 20.1052 11.3456 20.5876 11.3456C20.8764 11.3456 21.5569 11.0745 22.1577 10.8367C23.439 10.3266 25.0334 9.69263 26.8901 9.69263C26.8934 9.69263 26.8978 9.69263 26.9011 9.69263C28.2875 9.69263 32.491 9.99688 35.0182 13.7921L35.6101 14.6816L34.7582 15.3245C33.5411 16.2429 31.3203 17.9181 31.3203 21.2364C31.3203 25.1666 33.8354 26.678 35.0436 27.405C35.577 27.7259 36.1291 28.0567 36.1291 28.7803C36.1291 29.2528 32.3582 39.398 26.8823 39.398C25.5424 39.398 24.5952 38.9952 23.7598 38.6401C22.9145 38.2805 22.1853 37.9707 20.9803 37.9707C20.3696 37.9707 19.5972 38.2595 18.7795 38.566C17.6622 38.983 16.3974 39.4566 14.9623 39.4566H14.9247Z" fill="white"/>
<path d="M27.4702 0.782471C27.6128 5.9246 23.9354 9.49197 20.2623 9.26823C19.657 5.16464 23.935 0.782471 27.4702 0.782471Z" fill="white"/>
</g>
<defs>
<clipPath id="clip0">
<rect width="38.674" height="38.674" fill="white" transform="translate(0.931152 0.782471)"/>
</clipPath>
</defs>
</svg>
