<svg width="18" height="15" viewBox="0 0 18 15" fill="none" xmlns="http://www.w3.org/2000/svg">
<path d="M15.5407 3.05447H13.0137L12.4117 1.36731C12.3701 1.25186 12.2938 1.15207 12.1934 1.08156C12.093 1.01106 11.9732 0.97328 11.8505 0.973389H6.14983C5.89899 0.973389 5.67416 1.13133 5.59054 1.36731L4.98666 3.05447H2.45963C1.63835 3.05447 0.973145 3.71967 0.973145 4.54096V13.0139C0.973145 13.8352 1.63835 14.5004 2.45963 14.5004H15.5407C16.362 14.5004 17.0272 13.8352 17.0272 13.0139V4.54096C17.0272 3.71967 16.362 3.05447 15.5407 3.05447ZM9.00017 11.5274C7.3576 11.5274 6.0272 10.197 6.0272 8.55447C6.0272 6.9119 7.3576 5.5815 9.00017 5.5815C10.6427 5.5815 11.9731 6.9119 11.9731 8.55447C11.9731 10.197 10.6427 11.5274 9.00017 11.5274ZM7.21639 8.55447C7.21639 9.02756 7.40432 9.48127 7.73885 9.8158C8.07337 10.1503 8.52708 10.3383 9.00017 10.3383C9.47326 10.3383 9.92697 10.1503 10.2615 9.8158C10.596 9.48127 10.784 9.02756 10.784 8.55447C10.784 8.08138 10.596 7.62767 10.2615 7.29314C9.92697 6.95862 9.47326 6.77069 9.00017 6.77069C8.52708 6.77069 8.07337 6.95862 7.73885 7.29314C7.40432 7.62767 7.21639 8.08138 7.21639 8.55447Z" fill="white"/>
</svg>
