<svg width="24" height="24" viewBox="0 0 24 24" fill="none" xmlns="http://www.w3.org/2000/svg">
<path d="M19.7075 0.0849609H3.94121C3.42359 0.0849609 2.9111 0.187368 2.43288 0.385476C1.95467 0.583585 1.52011 0.873559 1.15413 1.23961C0.788142 1.60566 0.49784 2.04012 0.299818 2.51837C0.101796 2.99662 -9.37081e-05 3.50959 6.46681e-08 4.02722V19.7914C-9.37081e-05 20.309 0.101796 20.8213 0.299818 21.2995C0.49784 21.7778 0.788142 22.2122 1.15413 22.5783C1.52011 22.9443 1.95467 23.235 2.43288 23.4331C2.9111 23.6312 3.42359 23.7329 3.94121 23.7329H11.8243V13.3871H8.86834V10.4308H11.8243V8.2177C11.8243 7.23769 12.2136 6.29744 12.9065 5.6044C13.5994 4.91137 14.5392 4.52246 15.5192 4.52227H19.214V7.47792H15.5192C15.3233 7.4783 15.1354 7.55611 14.9968 7.69476C14.8583 7.83342 14.7804 8.02171 14.7802 8.2177V10.4308H18.845L18.1059 13.3871H14.7802V23.7329H19.7068C20.7521 23.7328 21.7546 23.3175 22.4937 22.5783C23.2328 21.8391 23.648 20.8367 23.648 19.7914V4.02722C23.6481 3.50959 23.5462 2.99662 23.3482 2.51837C23.1501 2.04012 22.8598 1.60566 22.4939 1.23961C22.1279 0.873559 21.6933 0.583585 21.2151 0.385476C20.7369 0.187368 20.2244 0.0849609 19.7068 0.0849609H19.7075Z" fill="#495E4B"/>
</svg>
