<svg width="107" height="107" viewBox="0 0 107 107" fill="none" xmlns="http://www.w3.org/2000/svg">
<g clip-path="url(#clip0)">
<path d="M82.1635 12.3229C78.9765 6.36332 75.1591 3.34302 70.8161 3.34302C65.8169 3.34302 60.6249 7.42791 55.3791 15.4901C54.708 16.5221 54.0794 17.5538 53.4999 18.5499C52.9204 17.5538 52.2917 16.5221 51.6192 15.4901C46.3765 7.42791 41.1829 3.34302 36.1837 3.34302C31.8409 3.34302 28.0218 6.36332 24.8364 12.3229C22.4546 16.7833 23.3133 19.9867 24.4529 21.8872C26.5067 25.3126 31.098 27.6213 38.4891 28.9404C44.1641 29.9559 50.1694 30.1061 53.2437 30.1061H53.2453C53.3319 30.1061 53.4167 30.1061 53.5001 30.1061C53.5849 30.1061 53.6698 30.1061 53.7565 30.1061C56.831 30.1061 62.836 29.9559 68.5113 28.9404C75.9008 27.6213 80.492 25.3126 82.5493 21.8872C83.6852 19.9867 84.5473 16.7833 82.1635 12.3229Z" fill="#819C47"/>
<path d="M100.313 46.4136C100.313 43.9515 98.3142 41.9563 95.8519 41.9563H11.1464C8.6843 41.9563 6.68762 43.9515 6.68762 46.4136V99.1983C6.68762 101.66 8.6843 103.655 11.1464 103.655H95.8521C98.3142 103.655 100.313 101.66 100.313 99.1983V46.4136H100.313Z" fill="url(#paint0_linear)"/>
<path d="M107 50.1588C107 52.6209 105.001 54.6161 102.539 54.6161H4.45899C1.99689 54.6159 0 52.6207 0 50.1586V27.8662C0 25.4041 1.99689 23.4055 4.45899 23.4055H102.54C105.002 23.4055 107 25.4039 107 27.8662V50.1588H107Z" fill="url(#paint1_linear)"/>
<path d="M64.6494 23.405H42.3545V54.6112H64.6494V23.405Z" fill="#97B35D"/>
<path d="M6.68762 59.0241L100.313 67.5369V54.7563H6.68762V59.0241Z" fill="#18D28C"/>
<path d="M64.6494 54.613H42.3545V103.656H64.6494V54.613Z" fill="#97B35D"/>
<path d="M42.3538 62.2666L64.6483 64.2944V54.7563H42.3538V62.2666Z" fill="#819C47"/>
</g>
<defs>
<linearGradient id="paint0_linear" x1="100.313" y1="72.7596" x2="7.82543" y2="72.7596" gradientUnits="userSpaceOnUse">
<stop offset="0.292818" stop-color="#62BE55"/>
<stop offset="0.779006" stop-color="#1FAC79"/>
</linearGradient>
<linearGradient id="paint1_linear" x1="107" y1="38.9874" x2="1.30035" y2="38.9874" gradientUnits="userSpaceOnUse">
<stop offset="0.292818" stop-color="#62BE55"/>
<stop offset="0.779006" stop-color="#1FAC79"/>
</linearGradient>
<clipPath id="clip0">
<rect width="107" height="107" fill="white"/>
</clipPath>
</defs>
</svg>
