<?xml version="1.0" encoding="iso-8859-1"?>
<!-- Generator: Adobe Illustrator 16.0.0, SVG Export Plug-In . SVG Version: 6.00 Build 0)  -->
<!DOCTYPE svg PUBLIC "-//W3C//DTD SVG 1.1//EN" "http://www.w3.org/Graphics/SVG/1.1/DTD/svg11.dtd">
<svg version="1.1" id="Capa_1" xmlns="http://www.w3.org/2000/svg" xmlns:xlink="http://www.w3.org/1999/xlink" x="0px" y="0px"
	 width="21.977px" height="21.977px" viewBox="0 0 21.977 21.977" fill="#312AAA"  style="enable-background:new 0 0 21.977 21.977;"
	 xml:space="preserve">
<g>
	<g>
		<path d="M21.426,10.665l-1.062-0.25c1.281-2.281-0.222-3.743-1.687-4C16.039,5.953,14,7.71,11.993,7.682
			c0.621-0.35,1.328-1.127,1.88-2.144c0.889-1.631,1.047-3.258,0.354-3.635c-0.606-0.331-1.666,0.41-2.516,1.695
			c-0.055-0.164-0.104-0.327-0.173-0.492C10.616,0.91,8.81-0.425,7.503,0.124C6.199,0.672,5.889,2.896,6.812,5.093
			c0.47,1.117,1.168,2.006,1.912,2.543C6.998,6.931,5.362,5.413,3.504,5.705C1.582,6.008,1.362,8.883,0.551,8.758l0.438,2.375
			c1.812,0.03,1.875-3.032,3.688-3.25c2.526-0.305,4.315,1.04,5.906,0.315c0.227-0.103,0.387-0.17,0.467-0.221
			c0.041,0,0.074,0.004,0.116,0.002c0.604,0.716,4.229-0.659,6.67-0.031c1.207,0.31,0.857,2.559,0.652,3.747L21.426,10.665z
			 M10.621,7.537c-0.098,0.041-0.201,0.063-0.306,0.072c-0.006,0.001-0.013,0.002-0.019,0.004C9.513,7.665,8.57,6.864,8.058,5.644
			c-0.586-1.395-0.389-2.808,0.44-3.156c0.829-0.348,1.977,0.499,2.563,1.895c0.034,0.081,0.056,0.16,0.084,0.241
			c-0.544,1.173-0.697,2.272-0.418,2.847C10.69,7.491,10.661,7.52,10.621,7.537z M11.044,7.185c-0.175-0.375-0.068-1.092,0.294-1.85
			C11.47,6.092,11.361,6.768,11.044,7.185z M11.587,7.434c0.473-0.706,0.597-1.824,0.341-3.046c0.484-0.596,1.017-0.908,1.343-0.729
			c0.439,0.239,0.34,1.273-0.225,2.309C12.613,6.764,12.033,7.325,11.587,7.434z"/>
		<rect x="6.519" y="13.446" width="2.438" height="8.531"/>
		<rect x="4.957" y="13.446" width="1" height="8.531"/>
		<rect x="9.519" y="13.446" width="2.875" height="8.531"/>
		<rect x="15.957" y="13.446" width="1" height="8.531"/>
		<rect x="12.957" y="13.446" width="2.438" height="8.531"/>
		<rect x="4.457" y="8.977" width="13" height="4"/>
	</g>
</g>
<g>
</g>
<g>
</g>
<g>
</g>
<g>
</g>
<g>
</g>
<g>
</g>
<g>
</g>
<g>
</g>
<g>
</g>
<g>
</g>
<g>
</g>
<g>
</g>
<g>
</g>
<g>
</g>
<g>
</g>
</svg>
