<svg width="24" height="24" viewBox="0 0 24 24" fill="none" xmlns="http://www.w3.org/2000/svg">
<path d="M21.3733 23.6508H2.98038C2.28364 23.6505 1.61559 23.3735 1.12272 22.8811C0.629853 22.3886 0.352508 21.7203 0.351562 21.0236V2.6308C0.352318 1.93374 0.629545 1.26559 1.12237 0.772625C1.6152 0.279662 2.28332 0.00240973 2.98038 0.00146484H21.3733C22.0702 0.0025993 22.738 0.279642 23.2305 0.772625C23.7229 1.26561 23.9999 1.93399 24.0002 2.6308V21.0236C23.9995 21.72 23.7224 22.3879 23.23 22.8804C22.7375 23.3728 22.0698 23.6501 21.3733 23.6508ZM2.98038 10.5132V19.9945C2.98113 20.2355 3.0775 20.4665 3.24829 20.6366C3.41909 20.8067 3.65044 20.9018 3.89151 20.9016H20.4624C20.7035 20.9018 20.9348 20.8067 21.1056 20.6366C21.2764 20.4665 21.3726 20.2355 21.3733 19.9945V10.5132H19.2957C19.3809 10.9396 19.4261 11.3726 19.4306 11.8073C19.4306 13.7371 18.664 15.5878 17.2995 16.9523C15.9349 18.3169 14.0842 19.0838 12.1545 19.0838C10.2247 19.0838 8.374 18.3169 7.00944 16.9523C5.64489 15.5878 4.87812 13.7371 4.87812 11.8073C4.88157 11.3726 4.92758 10.9397 5.0153 10.5139L2.98038 10.5132ZM12.1545 7.26194C11.255 7.26223 10.3757 7.52897 9.62797 8.02892C8.88021 8.52887 8.29752 9.23935 7.95352 10.0705C7.60953 10.9016 7.51966 11.8162 7.69536 12.6984C7.87107 13.5806 8.30447 14.3906 8.94066 15.0265C9.57685 15.6624 10.3872 16.0951 11.2695 16.2704C12.1517 16.4457 13.0663 16.3554 13.8972 16.0111C14.7282 15.6667 15.4383 15.0836 15.9379 14.3356C16.4375 13.5876 16.7042 12.7082 16.704 11.8087C16.7029 10.6026 16.223 9.44642 15.37 8.59369C14.517 7.74097 13.3606 7.262 12.1545 7.26125V7.26194ZM18.3396 2.6315C18.0992 2.63169 17.8687 2.72714 17.6987 2.89715C17.5286 3.06716 17.4332 3.29749 17.433 3.53792V5.66384C17.4334 5.90478 17.5292 6.13564 17.6995 6.30601C17.8699 6.47638 18.1009 6.57199 18.3419 6.57236H20.4631C20.7047 6.57217 20.9362 6.47613 21.107 6.30532C21.2778 6.1345 21.3739 5.90332 21.374 5.66175V3.53792C21.3729 3.29667 21.2763 3.06575 21.1051 2.89576C20.9339 2.72577 20.7022 2.63093 20.461 2.6315H18.3396Z" fill="#495E4B"/>
</svg>
