<svg width="24" height="24" viewBox="0 0 24 24" fill="none" xmlns="http://www.w3.org/2000/svg">
<path d="M19.9499 23.6508H4.24728C3.19434 23.6496 2.18476 23.2308 1.44015 22.4864C0.695539 21.7419 0.276714 20.7322 0.275391 19.6792V3.97154C0.276713 2.91854 0.69556 1.909 1.44015 1.16441C2.18474 0.41982 3.19428 0.00132252 4.24728 0H19.9499C21.0029 0.00132252 22.0125 0.41982 22.757 1.16441C23.5016 1.909 23.9205 2.91854 23.9218 3.97154V19.6792C23.9205 20.7322 23.5017 21.7419 22.757 22.4864C22.0124 23.2308 21.0029 23.6496 19.9499 23.6508ZM15.0549 11.8268C15.4464 11.827 15.8219 11.9824 16.099 12.2591C16.3761 12.5357 16.5321 12.9113 16.5329 13.3029V19.2149H19.4894V12.5659C19.5346 11.6355 19.2102 10.725 18.587 10.0328C17.9637 9.34052 17.0922 8.92284 16.1623 8.87043C15.3333 8.87043 14.4629 9.48686 13.5762 10.7042V8.87043H10.6196V19.2149H13.5762V13.3029C13.5769 12.9112 13.733 12.5358 14.0102 12.2591C14.2874 11.9824 14.6632 11.8268 15.0549 11.8268ZM6.18564 8.86695V19.2128H9.14025V8.86695H6.18564ZM7.66364 4.43382C7.37147 4.43368 7.08581 4.51984 6.8428 4.68204C6.59979 4.84425 6.41036 5.07456 6.29842 5.34443C6.18648 5.61431 6.15702 5.91198 6.21388 6.19857C6.27074 6.48515 6.41144 6.74839 6.61794 6.95508C6.82443 7.16178 7.08758 7.30235 7.37411 7.35949C7.66064 7.41663 7.95756 7.3875 8.22754 7.27582C8.49753 7.16414 8.72837 6.97482 8.89081 6.73196C9.05324 6.48911 9.14011 6.20347 9.14025 5.9113C9.13968 5.51974 8.98399 5.14452 8.70725 4.86751C8.43052 4.59051 8.0552 4.43477 7.66364 4.43382Z" fill="#495E4B"/>
</svg>
