<?xml version="1.0" standalone="no"?>
<!DOCTYPE svg PUBLIC "-//W3C//DTD SVG 20010904//EN"
 "http://www.w3.org/TR/2001/REC-SVG-20010904/DTD/svg10.dtd">
<svg version="1.0" xmlns="http://www.w3.org/2000/svg"
 width="301.000000pt" height="93.000000pt" viewBox="0 0 301.000000 93.000000"
 preserveAspectRatio="xMidYMid meet">

<g transform="translate(0.000000,93.000000) scale(0.100000,-0.100000)"
fill="#000000" stroke="none">
<path d="M1062 703 c3 -24 8 -28 41 -31 l37 -3 0 -200 0 -199 -41 0 c-38 0
-40 -1 -37 -28 l3 -27 113 -3 112 -3 0 31 c0 28 -2 30 -40 30 l-40 0 0 230 0
230 -76 0 -75 0 3 -27z"/>
<path d="M1313 515 c7 -218 19 -259 82 -289 58 -28 155 -19 193 17 44 42 52
86 52 281 l0 176 -34 0 -35 0 -3 -195 c-3 -221 -4 -224 -81 -232 -39 -5 -49
-2 -71 20 l-26 26 0 191 0 190 -42 0 -41 0 6 -185z"/>
<path d="M308 586 c-21 -8 -38 -10 -38 -5 0 5 -16 9 -35 9 l-35 0 2 -187 3
-188 33 -3 32 -3 0 150 c0 169 -2 164 79 177 37 6 41 9 41 35 0 34 -20 37 -82
15z"/>
<path d="M505 586 c-63 -28 -95 -90 -95 -181 0 -154 100 -228 243 -179 49 16
56 28 35 57 -12 15 -17 15 -53 2 -22 -8 -52 -14 -67 -15 -36 0 -77 37 -84 78
l-6 32 110 0 111 0 6 33 c8 39 -7 101 -31 136 -33 46 -110 63 -169 37z m90
-52 c18 -7 45 -54 45 -79 0 -12 -14 -15 -80 -15 -44 0 -80 2 -80 5 0 3 6 21
14 39 20 48 57 66 101 50z"/>
<path d="M812 589 c-39 -9 -43 -13 -40 -37 3 -29 6 -30 89 -17 40 6 50 4 68
-14 12 -12 21 -34 21 -51 0 -28 -3 -30 -37 -30 -103 0 -163 -42 -163 -114 0
-87 69 -131 169 -108 28 6 47 7 49 1 2 -5 15 -9 29 -9 l24 0 -3 160 -3 160
-32 31 c-25 25 -41 32 -80 35 -26 2 -67 -2 -91 -7z m134 -306 c-3 -3 -25 -8
-49 -10 -36 -4 -49 -1 -66 16 -43 43 -16 83 60 91 l54 5 3 -49 c2 -26 1 -50
-2 -53z"/>
<path d="M1760 586 c-43 -15 -73 -67 -65 -111 8 -44 41 -72 112 -96 68 -22 79
-34 69 -74 -8 -33 -60 -43 -121 -22 -43 13 -46 13 -55 -4 -6 -10 -10 -22 -10
-28 0 -12 92 -41 132 -41 93 0 153 84 117 164 -12 26 -45 46 -124 74 -60 21
-72 51 -30 78 23 15 35 16 76 7 44 -9 51 -8 60 8 15 30 11 36 -35 48 -55 14
-81 13 -126 -3z"/>
<path d="M2060 578 c-64 -44 -75 -69 -75 -173 0 -79 3 -98 21 -121 51 -69 123
-89 213 -59 45 15 51 20 45 38 -10 35 -17 37 -59 22 -22 -8 -52 -14 -67 -15
-36 0 -77 37 -84 78 l-6 32 110 0 110 0 4 31 c6 42 -5 103 -26 134 -36 55
-130 71 -186 33z m110 -48 c16 -8 40 -58 40 -81 0 -5 -36 -9 -80 -9 -86 0 -89
3 -65 50 24 46 64 62 105 40z"/>
<path d="M2445 590 c-11 -4 -41 -5 -67 -2 l-48 5 0 -192 0 -192 33 3 32 3 3
151 3 151 38 11 c21 7 46 12 55 12 11 0 16 9 16 30 0 25 -4 30 -22 29 -13 0
-32 -4 -43 -9z"/>
<path d="M2614 589 c-49 -14 -69 -44 -69 -101 0 -61 17 -77 110 -108 68 -23
85 -43 65 -80 -18 -34 -77 -37 -151 -6 -21 9 -37 -43 -17 -56 45 -28 131 -35
183 -14 41 18 58 48 58 104 0 56 -27 84 -113 114 -60 21 -65 25 -65 53 0 39
37 54 98 38 45 -12 51 -10 61 23 6 19 1 23 -38 33 -52 13 -79 13 -122 0z"/>
</g>
</svg>
