<svg width="41" height="41" viewBox="0 0 41 41" fill="none" xmlns="http://www.w3.org/2000/svg">
<path d="M21.3439 20.7532L4.06532 38.4692C3.25619 37.8804 2.7758 36.901 2.78429 35.8576V5.64875C2.7758 4.60528 3.25619 3.6259 4.06532 3.03711L21.3439 20.7532Z" fill="white"/>
<path d="M29.7793 13.641L23.2191 19.9095L4.4707 1.9632C4.54134 1.90878 4.61492 1.85815 4.69105 1.81154C5.68192 1.21454 6.9196 1.19527 7.92882 1.76099L29.7793 13.641Z" fill="white"/>
<path d="M38.2156 20.7532C38.2269 21.8774 37.6202 22.9157 36.6387 23.452L30.8202 26.6586L24.7178 20.7532L30.8202 14.8479L36.6387 18.0545C37.6202 18.5908 38.2269 19.6291 38.2156 20.7532Z" fill="white"/>
<path d="M29.7793 27.8677L7.92882 39.7519C6.91737 40.309 5.68438 40.2898 4.69105 39.7013C4.61492 39.6547 4.54134 39.604 4.4707 39.5496L23.2192 21.5969L29.7793 27.8677Z" fill="white"/>
</svg>
