<?xml version="1.0" encoding="iso-8859-1"?>
<!-- Generator: Adobe Illustrator 16.0.0, SVG Export Plug-In . SVG Version: 6.00 Build 0)  -->
<!DOCTYPE svg PUBLIC "-//W3C//DTD SVG 1.1//EN" "http://www.w3.org/Graphics/SVG/1.1/DTD/svg11.dtd">
<svg version="1.1" id="Capa_1"  fill="#409046" xmlns="http://www.w3.org/2000/svg" xmlns:xlink="http://www.w3.org/1999/xlink" x="0px" y="0px"
	 width="421.651px" height="421.651px" viewBox="0 0 421.651 421.651" style="enable-background:new 0 0 421.651 421.651;"
	 xml:space="preserve">
<g>
	<path d="M412.326,179.386h-25.838c-4.847-25.694-15.26-50.06-30.467-71.292l17.936-17.937c1.745-1.749,2.726-4.107,2.726-6.588
		c0-2.47-0.98-4.842-2.726-6.591l-31.3-31.294c-3.64-3.637-9.538-3.637-13.18,0l-18.466,18.465
		c-21.044-14.391-44.94-24.17-69.915-28.602V9.318c0-5.148-4.175-9.318-9.316-9.318h-44.265c-5.144,0-9.315,4.17-9.315,9.318v26.229
		c-25.183,4.468-49.248,14.364-70.415,28.925L89.81,46.513c-3.637-3.642-9.535-3.642-13.18,0L45.337,77.812
		c-1.749,1.751-2.729,4.115-2.729,6.591s0.98,4.84,2.729,6.589l17.6,17.601c-15.022,21.13-25.322,45.319-30.129,70.793H9.319
		c-5.143,0-9.319,4.161-9.319,9.316v44.258c0,5.154,4.176,9.319,9.319,9.319h22.709c4.276,25.663,14.185,50.232,28.988,71.868
		l-16.508,16.504c-3.637,3.639-3.637,9.537,0,13.177l31.3,31.311c1.748,1.747,4.12,2.725,6.59,2.725s4.84-0.985,6.588-2.725
		l15.987-15.977c21.814,15.615,46.851,26.176,73.231,30.839v22.33c0,5.149,4.172,9.319,9.317,9.319h44.263
		c5.143,0,9.312-4.17,9.312-9.319v-22.33c26.169-4.63,51.032-15.065,72.739-30.507l16.477,16.468c3.498,3.494,9.686,3.494,13.177,0
		l31.299-31.302c3.64-3.646,3.64-9.533,0-13.177l-16.843-16.854c14.993-21.768,25.019-46.49,29.327-72.361h25.06
		c5.146,0,9.319-4.158,9.319-9.312v-44.258C421.645,183.547,417.471,179.386,412.326,179.386z M210.82,309.063
		c-54.252,0-98.23-43.979-98.23-98.233c0-54.25,43.979-98.232,98.23-98.232c54.255,0,98.229,43.976,98.229,98.232
		C309.049,265.085,265.075,309.063,210.82,309.063z M248.089,210.83c0,20.586-16.688,37.271-37.27,37.271
		c-20.581,0-37.271-16.686-37.271-37.271c0-20.585,16.691-37.271,37.271-37.271C231.402,173.56,248.089,190.245,248.089,210.83z"/>
</g>
<g>
</g>
<g>
</g>
<g>
</g>
<g>
</g>
<g>
</g>
<g>
</g>
<g>
</g>
<g>
</g>
<g>
</g>
<g>
</g>
<g>
</g>
<g>
</g>
<g>
</g>
<g>
</g>
<g>
</g>
</svg>
