<svg width="25" height="24" viewBox="0 0 25 24" fill="none" xmlns="http://www.w3.org/2000/svg">
<path d="M20.6484 23.6509H4.88213C3.83708 23.6494 2.83527 23.2333 2.09644 22.4942C1.35761 21.7551 0.942051 20.753 0.940918 19.708V3.94589C0.941862 2.90071 1.35724 1.89892 2.09609 1.15967C2.83494 0.420416 3.83695 0.00444182 4.88213 0.00292969H20.6484C21.6936 0.00444182 22.6954 0.420416 23.4343 1.15967C24.1731 1.89892 24.5887 2.90071 24.5896 3.94589V19.708C24.5887 20.7531 24.1731 21.755 23.4343 22.4942C22.6954 23.2333 21.6935 23.6496 20.6484 23.6509ZM5.37335 16.4685C6.67671 17.3035 8.1807 17.7726 9.72768 17.8261C11.2747 17.8795 12.8076 17.5156 14.1655 16.7725C15.5234 16.0295 16.6564 14.9345 17.4454 13.6028C18.2344 12.2711 18.6504 10.7518 18.6499 9.20386C18.6499 9.05535 18.6499 8.93122 18.642 8.8127C19.2353 8.38275 19.7475 7.85078 20.1549 7.24179C19.6009 7.48578 19.0139 7.64648 18.4128 7.71871C19.0473 7.34144 19.5214 6.74505 19.7458 6.04182C19.15 6.3954 18.498 6.64364 17.8181 6.77673C17.3607 6.29112 16.7561 5.97023 16.0978 5.86263C15.4394 5.75503 14.764 5.86725 14.1758 6.18197C13.5876 6.4967 13.1194 6.99624 12.8437 7.60367C12.568 8.21109 12.5 8.89209 12.6502 9.54203C11.4449 9.4795 10.2661 9.16531 9.18958 8.61956C8.11309 8.07382 7.1629 7.30898 6.40005 6.37372C6.01174 7.04131 5.89259 7.83159 6.06676 8.584C6.24094 9.33642 6.69533 9.9943 7.3375 10.4234C6.85658 10.4072 6.3865 10.2766 5.96601 10.0427V10.0817C5.96707 10.7814 6.20955 11.4597 6.65263 12.0012C7.0957 12.5428 7.71221 12.9145 8.39785 13.0541C8.13698 13.125 7.86774 13.1611 7.5974 13.1608C7.40576 13.1607 7.2145 13.1427 7.02618 13.1071C7.21912 13.7098 7.59608 14.237 8.10396 14.6145C8.61184 14.992 9.22517 15.201 9.85789 15.2121C8.78543 16.0573 7.45857 16.5143 6.09308 16.5097C5.85258 16.51 5.61222 16.4964 5.37335 16.4685Z" fill="#495E4B"/>
</svg>
