<?xml version="1.0" standalone="no"?>
<!DOCTYPE svg PUBLIC "-//W3C//DTD SVG 20010904//EN"
 "http://www.w3.org/TR/2001/REC-SVG-20010904/DTD/svg10.dtd">
<svg version="1.0" xmlns="http://www.w3.org/2000/svg"
 width="700.000000pt" height="700.000000pt" viewBox="0 0 700.000000 700.000000"
 preserveAspectRatio="xMidYMid meet">
<metadata>
Created by potrace 1.11, written by Peter Selinger 2001-2013
</metadata>
<g transform="translate(0.000000,700.000000) scale(0.100000,-0.100000)"
fill="#000000" stroke="none">
<path d="M265 6983 c-114 -35 -215 -137 -249 -252 -14 -49 -16 -351 -16 -3235
1 -3181 1 -3181 21 -3241 32 -92 101 -174 178 -211 20 -9 45 -22 56 -28 14 -8
912 -12 3223 -14 l3202 -2 63 21 c116 39 206 132 241 248 14 50 16 340 16
3231 0 2867 -2 3182 -16 3230 -37 125 -129 217 -254 254 -48 14 -365 16 -3234
15 -2822 0 -3187 -2 -3231 -16z m4160 -618 c17 -3 38 -8 47 -11 10 -3 30 -8
45 -10 64 -12 216 -70 324 -124 201 -100 360 -206 573 -379 65 -53 125 -101
133 -108 12 -10 -10 -53 -148 -280 -89 -147 -177 -293 -194 -323 -62 -107
-216 -360 -220 -360 -1 0 -106 67 -232 149 -241 157 -352 219 -473 269 -424
172 -805 114 -1107 -169 -214 -201 -394 -546 -498 -959 -23 -92 -28 -112 -40
-175 -45 -234 -62 -386 -80 -730 -18 -331 -22 -961 -11 -1932 l6 -602 -555 0
-555 0 0 142 c-3 1517 0 5451 4 5455 8 8 1089 9 1106 1 13 -6 15 -77 14 -554
l0 -547 25 29 c15 16 42 49 61 73 372 469 655 756 923 936 83 56 245 139 312
160 100 31 151 44 200 50 28 4 52 8 54 10 5 5 254 -4 286 -11z"/>
</g>
</svg>
